<svg xmlns="http://www.w3.org/2000/svg" viewBox="0 0 1600 900"><defs><style>.cls-1{fill:#f8ad0b;}</style></defs><title>Horizontal_Orange_gg</title><g id="Logo"><path class="cls-1" d="M664.28,436.38a16.9,16.9,0,0,0-1.9-4.32,13.82,13.82,0,0,0-2.74-3.2,15.89,15.89,0,0,0-3.27-2.15,16.58,16.58,0,0,0-3.45-1.23,15,15,0,0,0-3.29-.39H625V405H615v70h10V435h25.63a4.17,4.17,0,0,1,3.29,1.23,5.17,5.17,0,0,1,1.1,3.58V475h10V441.94A19.78,19.78,0,0,0,664.28,436.38Z"/><path class="cls-1" d="M685,415.09H675V405h10Zm0,60H675v-50h10Z"/><path class="cls-1" d="M745,459.65a17.13,17.13,0,0,1-.71,5.1,14.73,14.73,0,0,1-1.88,4,12.63,12.63,0,0,1-2.71,2.92,16.26,16.26,0,0,1-3.23,2,17.21,17.21,0,0,1-3.41,1.12,15.77,15.77,0,0,1-3.25.36H705v-10h25.66a4.31,4.31,0,0,0,3.26-1.14,4.62,4.62,0,0,0,1.08-3.3V439.57a4.57,4.57,0,0,0-1.11-3.38,4.39,4.39,0,0,0-3.23-1.1H709.47a4.53,4.53,0,0,0-3.34,1.12c-.75.75-1.13,1.84-1.13,4.87v54H695V440.48a16.83,16.83,0,0,1,.71-5.07,14.69,14.69,0,0,1,1.9-4,13.09,13.09,0,0,1,2.73-2.91,15.6,15.6,0,0,1,3.24-2,16.09,16.09,0,0,1,3.42-1.12,15.88,15.88,0,0,1,3.23-.36h19.58a16.2,16.2,0,0,1,5,.72,14.74,14.74,0,0,1,3.9,1.9,12.79,12.79,0,0,1,2.88,2.75,16.16,16.16,0,0,1,1.94,3.28,17.43,17.43,0,0,1,1.11,3.44,17,17,0,0,1,.35,3.3Z"/><path class="cls-1" d="M505,418.79a13.79,13.79,0,0,1,1.66-7,14.9,14.9,0,0,1,4.14-4.67,17.07,17.07,0,0,1,4.2-2.21v54.9a6.86,6.86,0,0,0,.93,4c.61.83,1.86,1.24,3.75,1.24h13.74c1.65,0,2.76-.43,3.35-1.29a7.63,7.63,0,0,0,.89-4.19v-17q0-8.88,3.75-13.31c2.5-2.95,6.71-4.3,12.89-4.3h1.23c6.18,0,10.65,1.35,13.15,4.3s3.75,7.39,3.75,13.31v17a8,8,0,0,0,.84,4.19c.56.86,1.69,1.29,3.4,1.29h13.65c1.88,0,3.14-.41,3.75-1.24a6.86,6.86,0,0,0,.93-4v-54.9h10v52.82a22.16,22.16,0,0,1-1,6.78,16.3,16.3,0,0,1-3,5.53,14.25,14.25,0,0,1-4.68,3.69,14.1,14.1,0,0,1-6.27,1.34H576q-7.68,0-11.43-4.23c-2.5-2.83-3.75-4.65-3.75-10.63V440.47a5.5,5.5,0,0,0-1.32-4.08,4.7,4.7,0,0,0-3.44-1.3h-1.95a4.68,4.68,0,0,0-3.44,1.3,5.5,5.5,0,0,0-1.32,4.08v19.74c0,6-1.25,7.8-3.75,10.63s-6.31,4.23-11.43,4.23H520a14.43,14.43,0,0,1-6.31-1.34A14.09,14.09,0,0,1,509,470a16.3,16.3,0,0,1-3-5.53,22.16,22.16,0,0,1-1-6.78Z"/><path class="cls-1" d="M775,475.09h-4.84a16.3,16.3,0,0,1-5-.86,14.48,14.48,0,0,1-4.94-2.85,15.33,15.33,0,0,1-3.79-5.14,17.93,17.93,0,0,1-1.45-7.76V405.09h10v55.22a4.8,4.8,0,0,0,1.25,3.48,4.17,4.17,0,0,0,3.13,1.3H775Z"/><path class="cls-1" d="M895,435.09a16.54,16.54,0,0,0-2.22-4.19,14.74,14.74,0,0,0-4.66-4.14,13.83,13.83,0,0,0-7-1.67H860.06a15.36,15.36,0,0,0-4.9.88,14.34,14.34,0,0,0-4.88,2.84,15.74,15.74,0,0,0-3.77,5.14,17.89,17.89,0,0,0-1.51,7.7v13.44h35.33a4.19,4.19,0,0,1,3.45,1.5A5.17,5.17,0,0,1,885,460.1a4.78,4.78,0,0,1-1.41,3.67,4.72,4.72,0,0,1-3.34,1.32H846.17a16.6,16.6,0,0,0,2.22,4.2,14.67,14.67,0,0,0,4.67,4.14,13.76,13.76,0,0,0,7,1.66h19.72a15.36,15.36,0,0,0,4.9-.88,14.09,14.09,0,0,0,4.88-2.84,15.63,15.63,0,0,0,3.77-5.14,17.74,17.74,0,0,0,1.51-7.7c0-1.66-.2-13.44-15.06-13.44H855v-4.87a5.15,5.15,0,0,1,1.33-3.74,4.39,4.39,0,0,1,3.34-1.39Z"/><path class="cls-1" d="M833.49,434a15.74,15.74,0,0,0-3.77-5.14,14.25,14.25,0,0,0-4.88-2.84,15.36,15.36,0,0,0-4.9-.88H798.89a13.76,13.76,0,0,0-7,1.67,14.67,14.67,0,0,0-4.67,4.14,16.54,16.54,0,0,0-2.22,4.19h35.33a4.43,4.43,0,0,1,3.35,1.39,5.19,5.19,0,0,1,1.32,3.74v4.87H800.22c-14.86,0-15.06,11.78-15.06,13.44a17.74,17.74,0,0,0,1.51,7.7,15.63,15.63,0,0,0,3.77,5.14,14.09,14.09,0,0,0,4.88,2.84,15.36,15.36,0,0,0,4.9.88h19.72a13.8,13.8,0,0,0,7-1.66,14.74,14.74,0,0,0,4.66-4.14,16.48,16.48,0,0,0,2.59-5.37,20.41,20.41,0,0,0,.8-5.39V441.65A17.74,17.74,0,0,0,833.49,434Zm-8.49,26a5.65,5.65,0,0,1-1.22,3.7,4.2,4.2,0,0,1-3.45,1.48H799.75a4.72,4.72,0,0,1-3.34-1.32A4.78,4.78,0,0,1,795,460.1a5.17,5.17,0,0,1,1.22-3.51,4.19,4.19,0,0,1,3.45-1.5H825Z"/><path class="cls-1" d="M905,475h10V435h25.63a4.17,4.17,0,0,1,3.29,1.23,5.17,5.17,0,0,1,1.1,3.58V475h10V441.94a19.78,19.78,0,0,0-.72-5.56,16.9,16.9,0,0,0-1.9-4.32,13.82,13.82,0,0,0-2.74-3.2,15.89,15.89,0,0,0-3.27-2.15,16.58,16.58,0,0,0-3.45-1.23,15,15,0,0,0-3.29-.39H915v-6.21a13.83,13.83,0,0,0-1.67-7,14.74,14.74,0,0,0-4.14-4.66A16.54,16.54,0,0,0,905,405Z"/><path class="cls-1" d="M1095,478.53V441.65a20.41,20.41,0,0,0-.8-5.39,16.43,16.43,0,0,0-2.59-5.36,14.74,14.74,0,0,0-4.66-4.14,13.83,13.83,0,0,0-7-1.67h-19.72a15.36,15.36,0,0,0-4.9.88,14.25,14.25,0,0,0-4.88,2.84,15.74,15.74,0,0,0-3.77,5.14,17.74,17.74,0,0,0-1.51,7.7v20.18c0,2.21.66,13.26,15.06,13.26H1085V480a5.19,5.19,0,0,1-1.32,3.74,4.43,4.43,0,0,1-3.35,1.39H1045a16.6,16.6,0,0,0,2.22,4.2,14.67,14.67,0,0,0,4.67,4.14,13.76,13.76,0,0,0,7,1.66h21a15.36,15.36,0,0,0,4.9-.88,14.09,14.09,0,0,0,4.88-2.84,15.63,15.63,0,0,0,3.77-5.14A17.71,17.71,0,0,0,1095,478.53Zm-10-13.44h-25.33a4.19,4.19,0,0,1-3.45-1.5,5.11,5.11,0,0,1-1.22-3.26V440.09a4.78,4.78,0,0,1,1.41-3.68,4.72,4.72,0,0,1,3.34-1.32h20.58a4.2,4.2,0,0,1,3.45,1.48,5.65,5.65,0,0,1,1.22,3.7Z"/><path class="cls-1" d="M1035,478.53V441.65a20.41,20.41,0,0,0-.8-5.39,16.43,16.43,0,0,0-2.59-5.36,14.74,14.74,0,0,0-4.66-4.14,13.83,13.83,0,0,0-7-1.67h-19.72a15.36,15.36,0,0,0-4.9.88,14.25,14.25,0,0,0-4.88,2.84,15.74,15.74,0,0,0-3.77,5.14,17.74,17.74,0,0,0-1.51,7.7v20.18c0,2.21.66,13.26,15.06,13.26H1025V480a5.19,5.19,0,0,1-1.32,3.74,4.43,4.43,0,0,1-3.35,1.39H985a16.6,16.6,0,0,0,2.22,4.2,14.67,14.67,0,0,0,4.67,4.14,13.76,13.76,0,0,0,7,1.66h21.05a15.36,15.36,0,0,0,4.9-.88,14.18,14.18,0,0,0,4.88-2.84,15.63,15.63,0,0,0,3.77-5.14A17.71,17.71,0,0,0,1035,478.53Zm-10-13.44H999.67a4.19,4.19,0,0,1-3.45-1.5,5.11,5.11,0,0,1-1.22-3.26V440.09a4.78,4.78,0,0,1,1.41-3.68,4.72,4.72,0,0,1,3.34-1.32h20.58a4.2,4.2,0,0,1,3.45,1.48,5.65,5.65,0,0,1,1.22,3.7Z"/><rect class="cls-1" x="965" y="464.91" width="10" height="10.1"/></g></svg>