<svg xmlns="http://www.w3.org/2000/svg" viewBox="0 0 165 36"><defs><style>.cls-1{fill:#f8ad0b;}</style></defs><title>whiplash-horizontal-4c</title><g id="Logo"><path class="cls-1" d="M.21,0V36h36V0ZM31.07,14.16v8.4a5.76,5.76,0,0,1-.26,1.74,4.17,4.17,0,0,1-.76,1.43,3.72,3.72,0,0,1-1.2.95,3.63,3.63,0,0,1-1.61.34H23.58a3.73,3.73,0,0,1-2.94-1.09,3.29,3.29,0,0,1-1-2.73V18.12a1.47,1.47,0,0,0-.34-1.05,1.22,1.22,0,0,0-.89-.33H18a1.22,1.22,0,0,0-.89.33,1.43,1.43,0,0,0-.34,1.05V23.2a3.29,3.29,0,0,1-1,2.73A3.73,3.73,0,0,1,12.85,27H9.19a3.63,3.63,0,0,1-1.61-.34,3.72,3.72,0,0,1-1.2-.95,4.17,4.17,0,0,1-.76-1.43,5.47,5.47,0,0,1-.26-1.74v-10a3.48,3.48,0,0,1,.43-1.8,3.75,3.75,0,0,1,1.06-1.2A4.66,4.66,0,0,1,7.93,9V23.1a1.74,1.74,0,0,0,.24,1,1.13,1.13,0,0,0,1,.32h3.51a1,1,0,0,0,.88-.33,2.07,2.07,0,0,0,.21-1.07V18.68a5.15,5.15,0,0,1,1-3.42,2.72,2.72,0,0,1,1-.7,5.86,5.86,0,0,1,2.36-.4h.37a5.86,5.86,0,0,1,2.36.4,2.72,2.72,0,0,1,1,.7,5.15,5.15,0,0,1,1,3.42v4.37a2.07,2.07,0,0,0,.21,1.07,1,1,0,0,0,.88.33H27.3a1.13,1.13,0,0,0,1-.32,1.74,1.74,0,0,0,.24-1V9a4.66,4.66,0,0,1,1.08.57,3.75,3.75,0,0,1,1.06,1.2,3.48,3.48,0,0,1,.43,1.8Z"/><path class="cls-1" d="M90,17.07A4.34,4.34,0,0,0,89.54,16a3.52,3.52,0,0,0-.7-.82,4,4,0,0,0-2.58-1H79.93V9H77.36V27h2.57V16.72h6.59a1.09,1.09,0,0,1,.85.32,1.38,1.38,0,0,1,.28.92V27h2.56V18.5A5.23,5.23,0,0,0,90,17.07Z"/><path class="cls-1" d="M95.36,11.6H92.79V9h2.57Zm0,15.43H92.79V14.17h2.57Z"/><path class="cls-1" d="M110.69,17.28a4.36,4.36,0,0,0-.28-.89,4,4,0,0,0-.5-.84,3.34,3.34,0,0,0-.74-.71,4,4,0,0,0-1-.49,4.28,4.28,0,0,0-1.29-.18h-5a4.19,4.19,0,0,0-1.72.38,4,4,0,0,0-.83.51,3.15,3.15,0,0,0-.7.75,3.79,3.79,0,0,0-.49,1,4.41,4.41,0,0,0-.18,1.31v14h2.57V27h6.38a4.35,4.35,0,0,0,.84-.1,4.29,4.29,0,0,0,1.7-.79,3.34,3.34,0,0,0,.7-.75,3.84,3.84,0,0,0,.48-1,4.15,4.15,0,0,0,.19-1.31V18.13A3.71,3.71,0,0,0,110.69,17.28Zm-2.48,6a1.2,1.2,0,0,1-.27.85,1.1,1.1,0,0,1-.84.29h-6.6V18.28c0-.78.1-1.06.29-1.25a1.18,1.18,0,0,1,.86-.29h5.45a1.13,1.13,0,0,1,.83.28,1.18,1.18,0,0,1,.28.87Z"/><path class="cls-1" d="M49.07,12.55a3.48,3.48,0,0,1,.43-1.8,3.87,3.87,0,0,1,1.06-1.2A4.66,4.66,0,0,1,51.64,9V23.1a1.74,1.74,0,0,0,.24,1,1.14,1.14,0,0,0,1,.32h3.53a1,1,0,0,0,.86-.33,2,2,0,0,0,.23-1.07V18.68a5.21,5.21,0,0,1,1-3.42,4.13,4.13,0,0,1,3.32-1.1h.32a4.29,4.29,0,0,1,3.38,1.1,5.21,5.21,0,0,1,1,3.42v4.37a2,2,0,0,0,.22,1.07,1,1,0,0,0,.87.33H71a1.14,1.14,0,0,0,1-.32,1.82,1.82,0,0,0,.23-1V9h2.58V22.56a5.47,5.47,0,0,1-.27,1.74,4,4,0,0,1-.76,1.43,3.72,3.72,0,0,1-1.2.95A3.6,3.6,0,0,1,71,27H67.32a3.7,3.7,0,0,1-2.94-1.09,3.29,3.29,0,0,1-1-2.73V18.12a1.43,1.43,0,0,0-.35-1.05,1.2,1.2,0,0,0-.88-.33h-.5a1.2,1.2,0,0,0-.88.33,1.43,1.43,0,0,0-.35,1.05V23.2a3.29,3.29,0,0,1-1,2.73A3.7,3.7,0,0,1,56.56,27H52.93a3.64,3.64,0,0,1-1.62-.34,3.79,3.79,0,0,1-1.22-.95,4.34,4.34,0,0,1-.76-1.43,5.76,5.76,0,0,1-.26-1.74Z"/><path class="cls-1" d="M118.5,27h-1.24A4.08,4.08,0,0,1,116,26.8a3.59,3.59,0,0,1-1.28-.73,4,4,0,0,1-1-1.32,4.61,4.61,0,0,1-.37-2V9h2.57v14.2a1.24,1.24,0,0,0,.32.89,1.06,1.06,0,0,0,.8.33h1.45Z"/><path class="cls-1" d="M149.36,16.74a4.66,4.66,0,0,0-.57-1.08,3.85,3.85,0,0,0-1.2-1.06,3.53,3.53,0,0,0-1.8-.43h-5.42a4,4,0,0,0-1.26.22,3.73,3.73,0,0,0-1.25.74,3.84,3.84,0,0,0-1,1.32,4.54,4.54,0,0,0-.39,2v3.45h9.09a1.06,1.06,0,0,1,.88.39,1.32,1.32,0,0,1,.32.9,1.2,1.2,0,0,1-1.23,1.28H136.8a4.29,4.29,0,0,0,.57,1.08,3.88,3.88,0,0,0,1.2,1.07,3.63,3.63,0,0,0,1.8.43h5.07a4,4,0,0,0,1.26-.23,3.58,3.58,0,0,0,1.26-.73,4.19,4.19,0,0,0,1-1.32,4.54,4.54,0,0,0,.39-2c0-.43,0-3.46-3.88-3.46h-6.37V18.06a1.37,1.37,0,0,1,.34-1,1.15,1.15,0,0,1,.86-.36Z"/><path class="cls-1" d="M133.54,16.45a3.84,3.84,0,0,0-1-1.32,3.73,3.73,0,0,0-1.25-.74,4,4,0,0,0-1.26-.22h-5.42a3.53,3.53,0,0,0-1.8.43,3.85,3.85,0,0,0-1.2,1.06,4.66,4.66,0,0,0-.57,1.08h9.09a1.15,1.15,0,0,1,.86.36,1.37,1.37,0,0,1,.34,1v1.25H125c-3.82,0-3.87,3-3.87,3.46a4.54,4.54,0,0,0,.39,2,4,4,0,0,0,1,1.32,3.63,3.63,0,0,0,1.25.73A4,4,0,0,0,125,27h5.08a3.63,3.63,0,0,0,1.8-.43,3.88,3.88,0,0,0,1.2-1.07,4.19,4.19,0,0,0,.66-1.38,5,5,0,0,0,.21-1.38V18.43A4.54,4.54,0,0,0,133.54,16.45Zm-2.18,6.67a1.44,1.44,0,0,1-.32.95,1.06,1.06,0,0,1-.88.38h-5.29a1.2,1.2,0,0,1-1.23-1.28,1.32,1.32,0,0,1,.32-.9,1.06,1.06,0,0,1,.88-.39h6.52Z"/><path class="cls-1" d="M151.93,27h2.57V16.72h6.59a1.09,1.09,0,0,1,.85.32,1.33,1.33,0,0,1,.28.92V27h2.57V18.5a5.21,5.21,0,0,0-.19-1.43,4,4,0,0,0-.49-1.11,3.52,3.52,0,0,0-.7-.82,3.91,3.91,0,0,0-.84-.55,4,4,0,0,0-.89-.32,3.71,3.71,0,0,0-.85-.1H154.5v-1.6a3.48,3.48,0,0,0-.43-1.8A3.85,3.85,0,0,0,153,9.57,4.66,4.66,0,0,0,151.93,9Z"/></g></svg>