<svg xmlns="http://www.w3.org/2000/svg" viewBox="0 0 152 36"><defs><style>.cls-1{fill:#f8ad0b;}</style></defs><title>Horizontal_Orange</title><g id="Logo"><path class="cls-1" d="M41.1,17.07A4,4,0,0,0,40.61,16a3.3,3.3,0,0,0-.7-.82,3.91,3.91,0,0,0-.84-.55,4,4,0,0,0-.89-.32,3.71,3.71,0,0,0-.85-.1H31V9H28.43V27H31V16.72h6.59a1.09,1.09,0,0,1,.85.32,1.33,1.33,0,0,1,.28.92V27h2.57V18.5A5.21,5.21,0,0,0,41.1,17.07Z"/><path class="cls-1" d="M46.43,11.6H43.86V9h2.57Zm0,15.43H43.86V14.17h2.57Z"/><path class="cls-1" d="M61.86,23.06a4.15,4.15,0,0,1-.19,1.31,3.84,3.84,0,0,1-.48,1,3.34,3.34,0,0,1-.7.75,4.29,4.29,0,0,1-1.7.79A4.26,4.26,0,0,1,58,27H51.57V24.45h6.6a1.1,1.1,0,0,0,.84-.29,1.21,1.21,0,0,0,.28-.85V17.89A1.18,1.18,0,0,0,59,17a1.13,1.13,0,0,0-.83-.28H52.72a1.18,1.18,0,0,0-.86.29c-.19.19-.29.47-.29,1.25V32.17H49v-14a4.41,4.41,0,0,1,.18-1.31,3.79,3.79,0,0,1,.49-1,3.15,3.15,0,0,1,.7-.75,4.2,4.2,0,0,1,2.55-.89h5a4.28,4.28,0,0,1,1.29.18,4,4,0,0,1,1,.49,3.34,3.34,0,0,1,.74.71,4,4,0,0,1,.5.84,4.4,4.4,0,0,1,.29.89,4.32,4.32,0,0,1,.09.85Z"/><path class="cls-1" d="M.14,12.55a3.58,3.58,0,0,1,.43-1.8,3.88,3.88,0,0,1,1.07-1.2A4.4,4.4,0,0,1,2.71,9V23.1a1.74,1.74,0,0,0,.24,1,1.14,1.14,0,0,0,1,.32H7.45a1,1,0,0,0,.86-.33,2,2,0,0,0,.23-1.07V18.68a5.15,5.15,0,0,1,1-3.42c.64-.76,1.72-1.1,3.31-1.1h.32a4.27,4.27,0,0,1,3.38,1.1,5.21,5.21,0,0,1,1,3.42v4.37a2,2,0,0,0,.22,1.07,1,1,0,0,0,.87.33h3.51a1.14,1.14,0,0,0,1-.32,1.74,1.74,0,0,0,.24-1V9h2.57V22.56a5.76,5.76,0,0,1-.26,1.74,4.34,4.34,0,0,1-.76,1.43,3.87,3.87,0,0,1-1.21.95A3.6,3.6,0,0,1,22,27H18.39a3.7,3.7,0,0,1-2.94-1.09,3.29,3.29,0,0,1-1-2.73V18.12a1.47,1.47,0,0,0-.34-1.05,1.24,1.24,0,0,0-.89-.33h-.5a1.2,1.2,0,0,0-.88.33,1.43,1.43,0,0,0-.34,1.05V23.2a3.26,3.26,0,0,1-1,2.73A3.7,3.7,0,0,1,7.63,27H4a3.7,3.7,0,0,1-1.62-.34,3.79,3.79,0,0,1-1.22-.95A4.34,4.34,0,0,1,.4,24.3a5.76,5.76,0,0,1-.26-1.74Z"/><path class="cls-1" d="M69.57,27H68.33a4.08,4.08,0,0,1-1.28-.23,3.47,3.47,0,0,1-1.27-.73,3.93,3.93,0,0,1-1-1.32,4.61,4.61,0,0,1-.37-2V9H67v14.2a1.24,1.24,0,0,0,.32.89,1.09,1.09,0,0,0,.81.33h1.44Z"/><path class="cls-1" d="M100.43,16.74a4.66,4.66,0,0,0-.57-1.08,3.85,3.85,0,0,0-1.2-1.06,3.53,3.53,0,0,0-1.8-.43H91.44a3.75,3.75,0,0,0-1.26.23,3.54,3.54,0,0,0-1.25.73,3.84,3.84,0,0,0-1,1.32,4.54,4.54,0,0,0-.39,2v3.45h9.09a1.06,1.06,0,0,1,.88.39,1.32,1.32,0,0,1,.32.9,1.23,1.23,0,0,1-.37.95,1.21,1.21,0,0,1-.85.33H87.87a4.29,4.29,0,0,0,.57,1.08,3.88,3.88,0,0,0,1.2,1.07,3.63,3.63,0,0,0,1.8.43h5.08a4,4,0,0,0,1.26-.23A3.63,3.63,0,0,0,99,26.07a4,4,0,0,0,1-1.32,4.54,4.54,0,0,0,.39-2c0-.43,0-3.46-3.87-3.46H90.14V18.06a1.37,1.37,0,0,1,.34-1,1.15,1.15,0,0,1,.86-.36Z"/><path class="cls-1" d="M84.61,16.45a3.84,3.84,0,0,0-1-1.32,3.54,3.54,0,0,0-1.25-.73,3.75,3.75,0,0,0-1.26-.23H75.71a3.53,3.53,0,0,0-1.8.43,3.85,3.85,0,0,0-1.2,1.06,4.66,4.66,0,0,0-.57,1.08h9.09a1.15,1.15,0,0,1,.86.36,1.33,1.33,0,0,1,.34,1v1.25H76.06c-3.82,0-3.88,3-3.88,3.46a4.54,4.54,0,0,0,.39,2,4.19,4.19,0,0,0,1,1.32,3.67,3.67,0,0,0,1.26.73,4,4,0,0,0,1.26.23h5.07a3.6,3.6,0,0,0,1.8-.43,3.88,3.88,0,0,0,1.2-1.07,4,4,0,0,0,.66-1.38A5,5,0,0,0,85,22.77V18.43A4.54,4.54,0,0,0,84.61,16.45Zm-2.18,6.67a1.48,1.48,0,0,1-.31.95,1.08,1.08,0,0,1-.89.38H75.94a1.22,1.22,0,0,1-.86-.33,1.26,1.26,0,0,1-.37-.95,1.32,1.32,0,0,1,.32-.9,1.06,1.06,0,0,1,.88-.39h6.52Z"/><path class="cls-1" d="M103,27h2.57V16.72h6.59A1.09,1.09,0,0,1,113,17a1.33,1.33,0,0,1,.28.92V27h2.57V18.5a4.85,4.85,0,0,0-.19-1.43,4,4,0,0,0-.49-1.11,3.3,3.3,0,0,0-.7-.82,3.91,3.91,0,0,0-.84-.55,4,4,0,0,0-.89-.32,3.64,3.64,0,0,0-.85-.1h-6.33v-1.6a3.48,3.48,0,0,0-.43-1.8,3.85,3.85,0,0,0-1.06-1.2A4.66,4.66,0,0,0,103,9Z"/><path class="cls-1" d="M151.86,27.91V18.43a5.16,5.16,0,0,0-.21-1.39,4.61,4.61,0,0,0-.66-1.38,3.85,3.85,0,0,0-1.2-1.06,3.54,3.54,0,0,0-1.81-.43h-5.07a3.75,3.75,0,0,0-1.26.23,3.54,3.54,0,0,0-1.25.73,3.84,3.84,0,0,0-1,1.32,4.54,4.54,0,0,0-.39,2v5.19c0,.56.17,3.41,3.87,3.41h6.38v1.25a1.33,1.33,0,0,1-.35,1,1.12,1.12,0,0,1-.86.36H139a4.66,4.66,0,0,0,.57,1.08,3.85,3.85,0,0,0,1.2,1.06,3.48,3.48,0,0,0,1.8.43H148a4,4,0,0,0,1.26-.23,3.58,3.58,0,0,0,1.26-.73,4,4,0,0,0,1-1.32A4.54,4.54,0,0,0,151.86,27.91Zm-2.57-3.46h-6.52a1.08,1.08,0,0,1-.89-.38,1.33,1.33,0,0,1-.31-.84V18a1.24,1.24,0,0,1,.36-.94,1.2,1.2,0,0,1,.86-.34h5.29a1.09,1.09,0,0,1,.89.38,1.44,1.44,0,0,1,.32.95Z"/><path class="cls-1" d="M136.43,27.91V18.43a5.16,5.16,0,0,0-.21-1.39,4.38,4.38,0,0,0-.66-1.38,3.85,3.85,0,0,0-1.2-1.06,3.53,3.53,0,0,0-1.8-.43h-5.08a3.75,3.75,0,0,0-1.26.23,3.54,3.54,0,0,0-1.25.73,3.84,3.84,0,0,0-1,1.32,4.54,4.54,0,0,0-.39,2v5.19c0,.56.17,3.41,3.87,3.41h6.38v1.25a1.37,1.37,0,0,1-.34,1,1.15,1.15,0,0,1-.86.36h-9.09a4.66,4.66,0,0,0,.57,1.08,3.85,3.85,0,0,0,1.2,1.06,3.53,3.53,0,0,0,1.8.43h5.42a4,4,0,0,0,1.26-.23,3.54,3.54,0,0,0,1.25-.73,4,4,0,0,0,1-1.32A4.54,4.54,0,0,0,136.43,27.91Zm-2.57-3.46h-6.52a1.06,1.06,0,0,1-.88-.38,1.28,1.28,0,0,1-.32-.84V18a1.24,1.24,0,0,1,.36-.94,1.22,1.22,0,0,1,.86-.34h5.3a1.09,1.09,0,0,1,.88.38,1.44,1.44,0,0,1,.32.95Z"/><rect class="cls-1" x="118.43" y="24.41" width="2.57" height="2.6"/></g></svg>